<svg width="16" height="16" viewBox="0 0 16 16" fill="none" xmlns="http://www.w3.org/2000/svg">
<g clip-path="url(#clip0_1951_3404)">
<mask id="mask0_1951_3404" style="mask-type:luminance" maskUnits="userSpaceOnUse" x="0" y="0" width="16" height="16">
<path d="M16 0H0V16H16V0Z" fill="white"/>
</mask>
<g mask="url(#mask0_1951_3404)">
<mask id="mask1_1951_3404" style="mask-type:luminance" maskUnits="userSpaceOnUse" x="0" y="0" width="16" height="16">
<path d="M15.7046 6.54545H8.25V9.63638H12.5409C12.1409 11.6 10.4682 12.7273 8.25 12.7273C5.63183 12.7273 3.52273 10.6182 3.52273 8C3.52273 5.38182 5.63183 3.27273 8.25 3.27273C9.37728 3.27273 10.3955 3.67272 11.1955 4.32727L13.5227 2C12.1046 0.763638 10.2864 0 8.25 0C3.81365 0 0.25 3.56365 0.25 8C0.25 12.4364 3.81365 16 8.25 16C12.25 16 15.8864 13.0909 15.8864 8C15.8864 7.52727 15.8137 7.01818 15.7046 6.54545Z" fill="white"/>
</mask>
<g mask="url(#mask1_1951_3404)">
<path d="M-0.477539 12.7273V3.27271L5.70428 7.99998L-0.477539 12.7273Z" fill="#FBBC05"/>
</g>
<mask id="mask2_1951_3404" style="mask-type:luminance" maskUnits="userSpaceOnUse" x="0" y="0" width="16" height="16">
<path d="M15.7046 6.54545H8.25V9.63638H12.5409C12.1409 11.6 10.4682 12.7273 8.25 12.7273C5.63183 12.7273 3.52273 10.6182 3.52273 8C3.52273 5.38182 5.63183 3.27273 8.25 3.27273C9.37728 3.27273 10.3955 3.67272 11.1955 4.32727L13.5227 2C12.1046 0.763638 10.2864 0 8.25 0C3.81365 0 0.25 3.56365 0.25 8C0.25 12.4364 3.81365 16 8.25 16C12.25 16 15.8864 13.0909 15.8864 8C15.8864 7.52727 15.8137 7.01818 15.7046 6.54545Z" fill="white"/>
</mask>
<g mask="url(#mask2_1951_3404)">
<path d="M-0.477539 3.2727L5.70428 7.99998L8.24973 5.7818L16.977 4.36363V-0.727295H-0.477539V3.2727Z" fill="#EA4335"/>
</g>
<mask id="mask3_1951_3404" style="mask-type:luminance" maskUnits="userSpaceOnUse" x="0" y="0" width="16" height="16">
<path d="M15.7046 6.54545H8.25V9.63638H12.5409C12.1409 11.6 10.4682 12.7273 8.25 12.7273C5.63183 12.7273 3.52273 10.6182 3.52273 8C3.52273 5.38182 5.63183 3.27273 8.25 3.27273C9.37728 3.27273 10.3955 3.67272 11.1955 4.32727L13.5227 2C12.1046 0.763638 10.2864 0 8.25 0C3.81365 0 0.25 3.56365 0.25 8C0.25 12.4364 3.81365 16 8.25 16C12.25 16 15.8864 13.0909 15.8864 8C15.8864 7.52727 15.8137 7.01818 15.7046 6.54545Z" fill="white"/>
</mask>
<g mask="url(#mask3_1951_3404)">
<path d="M-0.477539 12.7272L10.4316 4.36362L13.3043 4.72725L16.977 -0.727295V16.7272H-0.477539V12.7272Z" fill="#34A853"/>
</g>
<mask id="mask4_1951_3404" style="mask-type:luminance" maskUnits="userSpaceOnUse" x="0" y="0" width="16" height="16">
<path d="M15.7046 6.54545H8.25V9.63638H12.5409C12.1409 11.6 10.4682 12.7273 8.25 12.7273C5.63183 12.7273 3.52273 10.6182 3.52273 8C3.52273 5.38182 5.63183 3.27273 8.25 3.27273C9.37728 3.27273 10.3955 3.67272 11.1955 4.32727L13.5227 2C12.1046 0.763638 10.2864 0 8.25 0C3.81365 0 0.25 3.56365 0.25 8C0.25 12.4364 3.81365 16 8.25 16C12.25 16 15.8864 13.0909 15.8864 8C15.8864 7.52727 15.8137 7.01818 15.7046 6.54545Z" fill="white"/>
</mask>
<g mask="url(#mask4_1951_3404)">
<path d="M16.9773 16.7273L5.70455 7.99998L4.25 6.90908L16.9773 3.27271V16.7273Z" fill="#4285F4"/>
</g>
</g>
</g>
<defs>
<clipPath id="clip0_1951_3404">
<rect width="16" height="16" fill="white"/>
</clipPath>
</defs>
</svg>
