<svg width="20" height="20" viewBox="0 0 20 20" fill="none" xmlns="http://www.w3.org/2000/svg">
<path d="M10 0.851074C15.5229 0.851074 20 4.3406 20 8.64631C20 12.9511 15.5229 16.4406 10 16.4406C9.4501 16.4409 8.90067 16.4059 8.35524 16.3358L4.15714 19.0816C3.68 19.3339 3.51143 19.3063 3.70762 18.6882L4.55714 15.1854C1.81429 13.7949 0 11.3854 0 8.64631C0 4.34155 4.47714 0.851074 10 0.851074ZM15.6257 8.52727L17.0257 7.17107C17.1065 7.08718 17.1515 6.9752 17.1514 6.85873C17.1512 6.74226 17.1059 6.6304 17.025 6.5467C16.944 6.463 16.8336 6.414 16.7172 6.41002C16.6009 6.40604 16.4874 6.44739 16.401 6.52536L14.5648 8.3025V6.83393C14.5648 6.71471 14.5174 6.60037 14.4331 6.51607C14.3488 6.43177 14.2345 6.38441 14.1152 6.38441C13.996 6.38441 13.8817 6.43177 13.7973 6.51607C13.713 6.60037 13.6657 6.71471 13.6657 6.83393V9.26917C13.6489 9.3386 13.6489 9.41117 13.6657 9.4806V10.8511C13.6657 10.9703 13.713 11.0846 13.7973 11.169C13.8817 11.2533 13.996 11.3006 14.1152 11.3006C14.2345 11.3006 14.3488 11.2533 14.4331 11.169C14.5174 11.0846 14.5648 10.9703 14.5648 10.8511V9.55298L14.9714 9.15965L16.3314 11.0958C16.3654 11.1442 16.4086 11.1854 16.4584 11.217C16.5083 11.2487 16.5639 11.2702 16.6221 11.2804C16.6803 11.2906 16.7399 11.2892 16.7975 11.2763C16.8552 11.2635 16.9097 11.2394 16.9581 11.2054C17.0065 11.1714 17.0476 11.1282 17.0792 11.0784C17.111 11.0285 17.1325 10.9729 17.1427 10.9147C17.1529 10.8565 17.1514 10.7969 17.1386 10.7393C17.1257 10.6816 17.1016 10.6271 17.0676 10.5787L15.6257 8.52631V8.52727ZM12.8086 10.3596H11.4181V6.84822C11.4128 6.7327 11.3631 6.62367 11.2795 6.54381C11.1959 6.46394 11.0847 6.41938 10.969 6.41938C10.8534 6.41938 10.7422 6.46394 10.6586 6.54381C10.575 6.62367 10.5253 6.7327 10.52 6.84822V10.8092C10.52 11.0568 10.72 11.2587 10.9686 11.2587H12.8086C12.9278 11.2587 13.0421 11.2114 13.1265 11.1271C13.2108 11.0427 13.2581 10.9284 13.2581 10.8092C13.2581 10.6899 13.2108 10.5756 13.1265 10.4913C13.0421 10.407 12.9278 10.3596 12.8086 10.3596ZM7.23048 9.31965L7.89333 7.69393L8.50095 9.31965H7.23048ZM9.63333 9.78441L9.63524 9.76917C9.63505 9.65593 9.59181 9.54698 9.51429 9.46441L8.5181 6.79774C8.47638 6.67067 8.39676 6.55935 8.2901 6.47868C8.18343 6.39803 8.0546 6.35184 7.92095 6.34631C7.78632 6.34572 7.6547 6.38614 7.54361 6.46219C7.43251 6.53824 7.34721 6.6463 7.29905 6.77203L5.71714 10.653C5.69482 10.7076 5.68348 10.7661 5.68377 10.8252C5.68406 10.8842 5.69597 10.9426 5.71884 10.9971C5.7417 11.0515 5.77506 11.1009 5.817 11.1424C5.85895 11.1839 5.90868 11.2169 5.96333 11.2392C6.01799 11.2615 6.0765 11.2728 6.13554 11.2725C6.19458 11.2722 6.25298 11.2603 6.30742 11.2375C6.36185 11.2146 6.41125 11.1813 6.45279 11.1393C6.49432 11.0974 6.5272 11.0476 6.54952 10.993L6.86381 10.2187H8.83524L9.12 10.9806C9.13933 11.0376 9.17 11.09 9.21 11.135C9.25 11.1798 9.29857 11.2163 9.35295 11.242C9.40733 11.2678 9.46629 11.2824 9.52638 11.2851C9.58648 11.2876 9.64648 11.2781 9.70286 11.2571C9.75914 11.236 9.81076 11.2038 9.85448 11.1626C9.89819 11.1213 9.93314 11.0716 9.95724 11.0165C9.98143 10.9614 9.99429 10.902 9.99505 10.8418C9.9959 10.7817 9.98457 10.722 9.9619 10.6663L9.63333 9.78441ZM6.46952 6.85298C6.46952 6.73392 6.4223 6.61973 6.3382 6.53546C6.25411 6.45118 6.14001 6.4037 6.02095 6.40346H2.93048C2.81126 6.40346 2.69691 6.45082 2.61262 6.53512C2.52831 6.61942 2.48095 6.73376 2.48095 6.85298C2.48095 6.9722 2.52831 7.08654 2.61262 7.17084C2.69691 7.25514 2.81126 7.3025 2.93048 7.3025H4.03524V10.8606C4.03524 10.9798 4.0826 11.0941 4.1669 11.1785C4.2512 11.2628 4.36554 11.3101 4.48476 11.3101C4.60398 11.3101 4.71832 11.2628 4.80262 11.1785C4.88692 11.0941 4.93429 10.9798 4.93429 10.8606V7.3025H6.02C6.26857 7.3025 6.46952 7.1006 6.46952 6.85298Z" fill="#261C07"/>
</svg>
